<?xml version="1.0" encoding="UTF-8" standalone="no"?>
<svg width="45px" height="45px" viewBox="0 0 45 45" version="1.1" xmlns="http://www.w3.org/2000/svg" xmlns:xlink="http://www.w3.org/1999/xlink" xmlns:sketch="http://www.bohemiancoding.com/sketch/ns">
    <!-- Generator: Sketch 3.2 (9961) - http://www.bohemiancoding.com/sketch -->
    <title>Twitter</title>
    <defs></defs>
    <g id="Page-1" stroke="none" stroke-width="1" fill="none" fill-rule="evenodd" sketch:type="MSPage">
        <g id="Desktop-HD" sketch:type="MSArtboardGroup" transform="translate(-1126.000000, -59.000000)" fill="#FFFFFF">
            <g id="Social-Links" sketch:type="MSLayerGroup" transform="translate(1126.000000, 59.000000)">
                <path d="M5.79205282,0.479 C2.74504394,0.479 0.291050138,2.93292101 0.291050138,5.97985861 L0.291050138,38.9781414 C0.291050138,42.0256514 2.74504394,44.479 5.79205282,44.479 L38.7900475,44.479 C41.8370563,44.479 44.2910501,42.0256514 44.2910501,38.9781414 L44.2910501,5.97985861 C44.2910501,2.93292101 41.8376293,0.479 38.7900475,0.479 L5.79205282,0.479 L5.79205282,0.479 L5.79205282,0.479 Z M28.9013061,8.50647567 C30.9284437,8.50647567 32.7619203,9.36680767 34.0487916,10.7337224 C35.6553755,10.4206142 37.162837,9.8338941 38.52935,9.02736863 C38.0027985,10.6741918 36.8826589,12.0542719 35.4290557,12.9277693 C36.8563026,12.7543291 38.2159401,12.374249 39.4758823,11.8144322 C38.5356526,13.2282845 37.3358713,14.4681242 35.9624828,15.4681242 C35.9756609,15.768067 35.9756609,16.0754511 35.9756609,16.3748214 C35.9756609,25.6965157 28.888128,36.4446554 15.9128435,36.4446554 C11.9324805,36.4446554 8.22542001,35.2780841 5.10449911,33.2775117 C5.65797985,33.3439113 6.21833612,33.3776835 6.78499498,33.3776835 C10.0921283,33.3776835 13.1328347,32.244312 15.5461482,30.3576491 C12.459032,30.2975461 9.85205751,28.256905 8.95881064,25.456676 C9.3856669,25.5368134 9.82570128,25.5831786 10.2857893,25.5831786 C10.9257872,25.5831786 11.5520341,25.4967447 12.1393195,25.3364699 C8.91870334,24.6896468 6.48533615,21.8361837 6.48533615,18.421759 L6.48533615,18.3353251 C7.43874397,18.8619422 8.5256518,19.1750504 9.67902316,19.2156915 C7.78538563,17.9489485 6.5454971,15.7886737 6.5454971,13.3410492 C6.5454971,12.047403 6.89213876,10.840763 7.49890492,9.80069433 C10.9727701,14.0680097 16.173541,16.8751076 22.0343634,17.1681815 C21.9146145,16.6484333 21.847578,16.1149473 21.847578,15.561427 C21.847005,11.6667504 25.0080332,8.50647567 28.9013061,8.50647567 L28.9013061,8.50647567 L28.9013061,8.50647567 Z" id="Shape" sketch:type="MSShapeGroup"></path>
            </g>
        </g>
    </g>
</svg>